 <svg width="230" height="230" xmlns="http://www.w3.org/2000/svg" xmlns:svg="http://www.w3.org/2000/svg">
	<circle id="svg_16" r="95.01578" cy="110" cx="110" stroke-width="5" stroke="#000000" fill="#FF0000" stroke-dasharray="597"/>

	<circle id="svg_20" r="95.01578" cy="110" cx="110" stroke-width="5" stroke="#fff" fill="#fff" stroke-dasharray="597"/>

	<circle id="svg_1" r="90.01578" cy="110" cx="110" stroke-width="5" stroke="#000000" fill="#FF0000" stroke-dasharray="597"/>

	<path fill="black" d="m138.95455,92.52167l0,-9.355c0,-13.325 -13.21405,-24.16667 -29.45455,-24.16667s-29.45455,10.84167 -29.45455,24.16667l0,9.355c-6.26093,0.97667 -11.04545,5.91667 -11.04545,11.86167l0,32.57c0,6.64167 5.97007,12.04667 13.30793,12.04667l54.38414,0c7.33786,0 13.30793,-5.405 13.30793,-12.04833l0,-32.57c0,-5.94333 -4.78452,-10.88333 -11.04545,-11.86l0,-0.00001zm-55.22727,-9.355c0,-11.48833 11.56091,-20.83333 25.77273,-20.83333s25.77273,9.345 25.77273,20.83333l0,9.16667l-51.54546,0l0,-9.16667zm62.59091,53.785c0,4.805 -4.31877,8.715 -9.62611,8.715l-54.38414,0c-5.30734,0 -9.62611,-3.91 -9.62611,-8.715l0,-32.57c0,-4.805 4.31877,-8.715 9.62611,-8.715l54.38414,0c5.30734,0 9.62611,3.91 9.62611,8.715l0,32.57z" id="svg_3" stroke="null"/>
	<path fill="black" d="m109.5,107.66667c-4.06105,0 -7.36364,2.99 -7.36364,6.66667l0,10c0,3.67667 3.30259,6.66667 7.36364,6.66667s7.36364,-2.99 7.36364,-6.66667l0,-10c0,-3.67667 -3.30259,-6.66667 -7.36364,-6.66667zm3.68182,16.66667c0,1.83833 -1.6513,3.33333 -3.68182,3.33333s-3.68182,-1.495 -3.68182,-3.33333l0,-10c0,-1.83833 1.6513,-3.33333 3.68182,-3.33333s3.68182,1.495 3.68182,3.33333l0,10z" id="svg_4" stroke="null"/>
	<path d="m138.32997,93.42094l0,-9.3088c0,-13.2592 -13.07508,-24.04732 -29.14478,-24.04732s-29.14478,10.78813 -29.14478,24.04732c0,0.91712 0.81423,1.65844 1.82155,1.65844s1.82155,-0.74132 1.82155,-1.65844c0,-11.4316 11.43933,-20.73045 25.50168,-20.73045s25.50168,9.29885 25.50168,20.73045l0,9.1214l-52.40778,0c-7.26069,0 -13.16798,5.37831 -13.16798,11.98883l0,32.40916c0,6.61053 5.90728,11.98883 13.16798,11.98883l53.81219,0c7.26069,0 13.16798,-5.37831 13.16798,-11.98883l0,-32.40916c0,-5.91398 -4.73421,-10.82959 -10.92929,-11.80143zm7.2862,44.21059c0,4.78127 -4.27335,8.67196 -9.52488,8.67196l-53.81219,0c-5.25153,0 -9.52488,-3.89069 -9.52488,-8.67196l0,-32.40916c0,-4.78127 4.27335,-8.67196 9.52488,-8.67196l53.81219,0c5.25153,0 9.52488,3.89069 9.52488,8.67196l0,32.40916z" id="svg_5" fill="black"/>
</svg>